<svg width="48" height="48" viewBox="0 0 48 48" fill="none" xmlns="http://www.w3.org/2000/svg">
<path d="M24 6C14.4 6 6 13.72 6 24C6 28.24 7.48 32.14 9.94 35.22L6 39.18L8.82 42L12.76 38.06C15.9519 40.6091 19.9151 41.9983 24 42C28.6 42 33.22 40.24 36.72 36.72C38.3964 35.0534 39.7261 33.0713 40.6323 30.8881C41.5385 28.7049 42.0034 26.3638 42 24V6H24ZM31.66 24.52L21.34 33.78C21.02 34.08 20.52 34.06 20.22 33.76C20.0834 33.6255 20 33.4461 19.9853 33.255C19.9706 33.0638 20.0255 32.8738 20.14 32.72L25.02 26.06L16.92 25.26C16.7221 25.2414 16.5338 25.1659 16.378 25.0425C16.2221 24.9191 16.1054 24.7532 16.0419 24.5649C15.9784 24.3765 15.9709 24.1738 16.0203 23.9812C16.0696 23.7887 16.1737 23.6146 16.32 23.48L26.64 14.22C26.96 13.92 27.46 13.94 27.76 14.24C28.04 14.52 28.08 14.96 27.84 15.28L22.96 21.94L31.06 22.74C31.96 22.82 32.32 23.92 31.66 24.52Z" fill="white"/>
</svg>
