<svg width="48" height="48" viewBox="0 0 48 48" fill="none" xmlns="http://www.w3.org/2000/svg">
<path d="M12.875 3.5H26.583L26.584 13.5L26.5879 13.6602C26.6695 15.3069 28.0079 16.625 29.667 16.625H39.5V41.0625C39.5 42.9686 37.9815 44.5 36.125 44.5H12.875C11.0186 44.5 9.5 42.9678 9.5 41.0625V6.9375C9.5 5.03142 11.0185 3.5 12.875 3.5ZM24.502 21.2031C23.3262 21.2031 22.3867 22.1706 22.3867 23.3438V23.4463C20.7374 23.919 19.5017 25.0251 19.0928 26.6504L19.0176 27.0088C18.8542 27.9691 18.9523 28.7857 19.2373 29.4746C19.5213 30.161 19.9788 30.6901 20.4893 31.0986C21.4953 31.9035 22.7564 32.2746 23.4463 32.4805H23.4482L23.917 32.6191L23.9189 32.6201C25.1159 32.968 25.6128 33.1775 25.8096 33.3164C25.8167 33.3214 25.8228 33.327 25.8281 33.3311C25.826 33.346 25.8227 33.3661 25.8184 33.3916C25.8177 33.3941 25.8178 33.3982 25.8135 33.4043C25.8067 33.4138 25.7899 33.4319 25.7549 33.4561C25.6801 33.5077 25.551 33.5634 25.3584 33.6045C24.9747 33.6864 24.455 33.687 23.9434 33.6064H23.9404C23.4409 33.531 22.777 33.2907 22.126 33.0537L21.7686 32.9219L21.7607 32.9189L21.5527 32.8574C20.5094 32.6065 19.4264 33.1855 19.0625 34.2285V34.2295C18.6783 35.3366 19.2463 36.5606 20.3506 36.958H20.3516L20.6924 37.0791V37.0801C21.2138 37.2706 21.7923 37.4617 22.3867 37.6162V37.7812C22.3867 38.9543 23.3262 39.9219 24.502 39.9219C25.6775 39.9216 26.6162 38.9543 26.6162 37.7812V37.6562C28.3764 37.1539 29.6753 35.942 29.9863 34.1182V34.1172C30.1507 33.1462 30.0483 32.3196 29.748 31.6211C29.449 30.9257 28.9671 30.3903 28.4219 29.9746C27.3481 29.156 25.969 28.7614 25.082 28.5068L25.0742 28.5049L25.0674 28.5029L24.5703 28.377C23.6552 28.0911 23.3037 27.8902 23.1816 27.7793C23.1796 27.7774 23.1776 27.7751 23.1758 27.7734C23.1768 27.7685 23.1784 27.7629 23.1797 27.7568L23.1826 27.7461L23.1846 27.7354C23.185 27.7327 23.1853 27.7289 23.1904 27.7217C23.1971 27.7124 23.2139 27.6942 23.249 27.6699C23.3237 27.6184 23.4529 27.5625 23.6455 27.5215C24.029 27.4399 24.5482 27.4392 25.0586 27.5186L25.0596 27.5195C25.4602 27.581 25.9167 27.7269 26.3896 27.8936C27.4957 28.2823 28.7026 27.6827 29.083 26.5723V26.5713C29.4621 25.4614 28.8878 24.2408 27.7812 23.8496L27.7793 23.8486C27.3448 23.6967 26.9662 23.5829 26.6162 23.4932V23.3438C26.6162 22.1708 25.6775 21.2033 24.502 21.2031ZM14.8125 13C14.1773 13 13.667 13.5255 13.667 14.1562V15.4688C13.667 16.0995 14.1773 16.625 14.8125 16.625H21.2705C21.9094 16.625 22.417 16.0983 22.417 15.4688V14.1562C22.417 13.5267 21.9094 13 21.2705 13H14.8125ZM38.8066 13H30.167V4.2207L38.8066 13ZM14.8125 7.75C14.1761 7.75 13.667 8.2792 13.667 8.90625V10.2188C13.667 10.847 14.1765 11.375 14.8125 11.375H21.2705C21.9102 11.375 22.417 10.8458 22.417 10.2188V8.90625C22.417 8.28043 21.9106 7.75 21.2705 7.75H14.8125Z" fill="#202636" stroke="black"/>
</svg>
