<svg width="48" height="48" viewBox="0 0 48 48" fill="none" xmlns="http://www.w3.org/2000/svg">
<path d="M29.6406 3.80859C30.0744 3.38107 30.7527 3.40434 31.166 3.83887C31.5643 4.25763 31.6182 4.91608 31.2812 5.38867L31.2783 5.39355L21.5244 19.3857L21.0391 20.082L21.8828 20.1689L38.0723 21.8496L38.0771 21.8506C39.4041 21.9746 40.0179 23.7327 38.9795 24.7285L18.3535 44.1836L18.3457 44.1914C17.9119 44.6189 17.2337 44.5957 16.8203 44.1611L16.8174 44.1582C16.6279 43.9621 16.5084 43.6961 16.4873 43.4082C16.4662 43.1201 16.5455 42.8361 16.7061 42.6094L16.709 42.6064L26.4619 28.6143L26.9473 27.918L26.1035 27.8311L9.91406 26.1504L9.91211 26.1494L9.80176 26.1348C9.54772 26.09 9.30617 25.9775 9.09961 25.8057C8.86316 25.6089 8.68265 25.3418 8.58398 25.0342C8.4853 24.7264 8.47298 24.3942 8.5498 24.0791C8.62612 23.7661 8.78539 23.4854 9.00586 23.2705L9.00684 23.2715L29.6328 3.81641L29.6406 3.80859Z" fill="#0052B4" stroke="#0052B4"/>
</svg>
