<svg width="73" height="18" viewBox="0 0 73 18" fill="none" xmlns="http://www.w3.org/2000/svg">
<path d="M2.02003 8.90533C2.02003 8.75005 2.07184 8.61418 2.18193 8.50419C2.29202 8.40068 2.42802 8.34892 2.57049 8.34892H3.89159C4.04054 8.34892 4.16358 8.40068 4.2672 8.51066C4.36434 8.62065 4.41614 8.75005 4.41614 8.90533C4.41614 9.0606 4.37081 9.19 4.27367 9.29999C4.17653 9.40998 4.04701 9.46174 3.89807 9.46174H2.57697C2.42802 9.46174 2.2985 9.40998 2.18841 9.29999C2.13476 9.24925 2.09213 9.18804 2.06316 9.12014C2.0342 9.05225 2.01952 8.97913 2.02003 8.90533ZM3.87216 13.389C3.87216 13.2402 3.92397 13.1108 4.02111 12.9943L4.97308 12.0691C5.07022 11.9656 5.19974 11.9203 5.35516 11.9203C5.51059 11.9203 5.6401 11.9721 5.74372 12.0691C5.84734 12.1662 5.89914 12.2891 5.89914 12.4379C5.89914 12.5932 5.84734 12.7355 5.74372 12.852L4.82413 13.7707C4.55862 13.9777 4.2931 13.9777 4.02759 13.7707C3.97711 13.7209 3.9373 13.6614 3.91058 13.5958C3.88386 13.5302 3.87079 13.4598 3.87216 13.389ZM3.87216 4.43463C3.87216 4.28582 3.92397 4.15643 4.02111 4.03997C4.15063 3.92998 4.28663 3.87822 4.43557 3.87822C4.57804 3.87822 4.70756 3.92998 4.81766 4.0335L5.74372 4.98457C5.84734 5.08162 5.89914 5.21102 5.89914 5.3663C5.89914 5.52157 5.84734 5.65097 5.74372 5.75449C5.6401 5.85801 5.51059 5.90977 5.35516 5.90977C5.19974 5.90977 5.07022 5.85801 4.97308 5.75449L4.02759 4.82929C3.97643 4.77734 3.9363 4.71561 3.90959 4.6478C3.88289 4.57998 3.87016 4.50748 3.87216 4.43463ZM5.52354 8.90533C5.52354 8.30363 5.67248 7.74075 5.97686 7.22316C6.28123 6.70556 6.68921 6.29149 7.21377 5.98741C7.73832 5.68332 8.29526 5.53451 8.89752 5.53451C9.35084 5.53451 9.78473 5.62509 10.2057 5.80625C10.6201 5.98741 10.9828 6.22679 11.2807 6.53088C11.5851 6.83496 11.8247 7.19081 11.9995 7.60488C12.1744 8.01895 12.265 8.4589 12.265 8.9118C12.265 9.51997 12.1161 10.0828 11.8117 10.6004C11.5073 11.118 11.0994 11.5256 10.5813 11.8297C10.0632 12.1338 9.49979 12.2826 8.89105 12.2826C8.2823 12.2826 7.71889 12.1338 7.20082 11.8297C6.68274 11.5256 6.27475 11.118 5.97038 10.6004C5.67896 10.0764 5.52354 9.5135 5.52354 8.90533ZM8.34706 13.9389C8.34706 13.7836 8.39887 13.6542 8.50896 13.5507C8.61905 13.4472 8.74857 13.3954 8.89752 13.3954C9.05295 13.3954 9.18894 13.4472 9.29256 13.5507C9.39617 13.6542 9.44798 13.7836 9.44798 13.9389V15.2264C9.44798 15.3817 9.39617 15.5176 9.28608 15.6275C9.17599 15.7375 9.04647 15.7893 8.89752 15.7893C8.74857 15.7893 8.61258 15.7375 8.50896 15.6275C8.45609 15.5752 8.41446 15.5126 8.38662 15.4437C8.35878 15.3747 8.34532 15.3008 8.34706 15.2264V13.9389ZM8.34706 3.91057V2.59071C8.34706 2.44191 8.39887 2.31251 8.50896 2.20252C8.61905 2.09253 8.74857 2.0343 8.904 2.0343C9.05942 2.0343 9.18247 2.08606 9.29256 2.19605C9.40265 2.30604 9.45446 2.43544 9.45446 2.58424V3.91057C9.45446 4.05938 9.40265 4.18231 9.29256 4.28582C9.18247 4.38934 9.05295 4.43463 8.904 4.43463C8.75505 4.43463 8.61905 4.38287 8.51544 4.28582C8.41182 4.18878 8.34706 4.05938 8.34706 3.91057ZM8.4183 6.70556C8.98171 6.77673 9.45446 7.02259 9.83654 7.4496C10.2186 7.87661 10.4129 8.38127 10.4129 8.95709C10.4129 9.49409 10.2445 9.96639 9.90777 10.3805C9.57102 10.7881 9.14361 11.0533 8.62553 11.1633C8.75505 11.1763 8.85219 11.1892 8.91047 11.1892C9.53864 11.1892 10.0826 10.9628 10.5295 10.5163C10.9763 10.0699 11.203 9.53291 11.203 8.89886C11.203 8.27775 10.9763 7.74722 10.5295 7.30079C10.0826 6.86084 9.54512 6.64086 8.91047 6.64086C8.73562 6.6538 8.57372 6.67321 8.4183 6.70556ZM11.9218 12.4379C11.9218 12.2891 11.9736 12.1662 12.0708 12.0756C12.1679 11.9721 12.2909 11.9268 12.4334 11.9268C12.5888 11.9268 12.7183 11.9785 12.822 12.0756L13.7675 13.0008C13.8711 13.1108 13.9229 13.2466 13.9229 13.3954C13.9229 13.5442 13.8711 13.6736 13.7675 13.7772C13.5084 13.9777 13.2494 13.9777 12.9903 13.7772L12.0708 12.8584C11.9714 12.7411 11.9185 12.5915 11.9218 12.4379ZM11.9218 5.37277C11.9218 5.21102 11.9736 5.08162 12.0708 4.99104L12.9903 4.03997C13.0924 3.9401 13.2296 3.88433 13.3724 3.88469C13.5278 3.88469 13.6574 3.93645 13.761 4.04644C13.8711 4.15643 13.9229 4.28582 13.9229 4.43463C13.9229 4.59638 13.8711 4.73225 13.7675 4.83577L12.822 5.76096C12.7054 5.86448 12.5759 5.91624 12.4334 5.91624C12.2845 5.91624 12.1679 5.86448 12.0708 5.76096C11.9736 5.65744 11.9218 5.52804 11.9218 5.37277ZM13.3854 8.90533C13.3854 8.75005 13.4372 8.62065 13.5408 8.50419C13.6444 8.40068 13.7675 8.34892 13.9099 8.34892H15.2181C15.367 8.34892 15.4965 8.40715 15.6066 8.51713C15.7167 8.62712 15.775 8.75652 15.775 8.90533C15.775 9.05413 15.7167 9.18353 15.6066 9.29352C15.4965 9.40351 15.367 9.45527 15.2181 9.45527H13.9099C13.761 9.45527 13.6315 9.40351 13.5343 9.29352C13.4372 9.18353 13.3854 9.0606 13.3854 8.90533Z" fill="#FFB84D"/>
<path d="M21.9483 10.0385V9.7524C21.9483 9.62769 22.0107 9.56533 22.1354 9.56533H22.8397C22.9644 9.56533 23.0267 9.62769 23.0267 9.7524V9.95047C23.0267 10.2586 23.0928 10.4823 23.2248 10.6217C23.3642 10.7538 23.5916 10.8198 23.9071 10.8198H24.6663C24.9818 10.8198 25.2092 10.7501 25.3486 10.6107C25.488 10.464 25.5577 10.2292 25.5577 9.90646V9.65336C25.5577 9.41861 25.466 9.23521 25.2826 9.10316C25.1065 8.96378 24.8864 8.87575 24.6223 8.83907C24.3582 8.79505 24.0684 8.73636 23.753 8.663C23.4376 8.58964 23.1478 8.50528 22.8837 8.40991C22.6196 8.31454 22.3958 8.13481 22.2124 7.87072C22.0364 7.60662 21.9483 7.26916 21.9483 6.85835V6.39618C21.9483 5.86065 22.0987 5.4425 22.3995 5.14173C22.7076 4.83361 23.1294 4.67956 23.665 4.67956H24.8314C25.3743 4.67956 25.7961 4.83361 26.0969 5.14173C26.405 5.4425 26.559 5.86065 26.559 6.39618V6.63827C26.559 6.76298 26.4967 6.82534 26.372 6.82534H25.6677C25.543 6.82534 25.4806 6.76298 25.4806 6.63827V6.49522C25.4806 6.17977 25.4109 5.95602 25.2716 5.82397C25.1395 5.68459 24.9158 5.6149 24.6003 5.6149H23.9071C23.5916 5.6149 23.3642 5.68826 23.2248 5.83498C23.0928 5.97436 23.0267 6.21645 23.0267 6.56124V6.90236C23.0267 7.23248 23.2652 7.45623 23.742 7.57361C23.9547 7.62496 24.1858 7.66898 24.4352 7.70566C24.692 7.74234 24.9488 7.79736 25.2055 7.87072C25.4623 7.94408 25.697 8.04311 25.9098 8.16782C26.1225 8.2852 26.2949 8.4686 26.427 8.71802C26.559 8.96011 26.625 9.25722 26.625 9.60935V10.0385C26.625 10.574 26.471 10.9959 26.1629 11.304C25.8621 11.6047 25.4439 11.7551 24.9084 11.7551H23.676C23.1404 11.7551 22.7186 11.6047 22.4105 11.304C22.1024 10.9959 21.9483 10.574 21.9483 10.0385ZM30.0787 11.7551H29.5835C29.0553 11.7551 28.6481 11.6084 28.362 11.315C28.0833 11.0142 27.9439 10.5924 27.9439 10.0495V6.33016C27.9439 6.20544 28.0062 6.14309 28.131 6.14309H28.8242C28.9489 6.14309 29.0113 6.20544 29.0113 6.33016V10.0055C29.0113 10.5484 29.2754 10.8198 29.8036 10.8198H30.3318C30.9333 10.8198 31.2341 10.508 31.2341 9.88445V6.33016C31.2341 6.20544 31.2964 6.14309 31.4212 6.14309H32.1144C32.2465 6.14309 32.3125 6.20544 32.3125 6.33016V11.5681C32.3125 11.6928 32.2465 11.7551 32.1144 11.7551H31.4212C31.2964 11.7551 31.2341 11.6928 31.2341 11.5681V11.1719H31.1901C31.014 11.5607 30.6435 11.7551 30.0787 11.7551ZM34.5639 11.7551H33.8707C33.7459 11.7551 33.6836 11.6928 33.6836 11.5681V6.33016C33.6836 6.20544 33.7459 6.14309 33.8707 6.14309H34.5639C34.6886 6.14309 34.751 6.20544 34.751 6.33016V6.7263H34.795C34.9711 6.33749 35.3415 6.14309 35.9064 6.14309H36.3906C36.9261 6.14309 37.3369 6.28981 37.623 6.58325C37.9091 6.87669 38.0522 7.29851 38.0522 7.84871V11.5681C38.0522 11.6928 37.9862 11.7551 37.8541 11.7551H37.1609C37.0361 11.7551 36.9738 11.6928 36.9738 11.5681V7.89272C36.9738 7.34986 36.706 7.07843 36.1705 7.07843H35.6533C35.0518 7.07843 34.751 7.39021 34.751 8.01377V11.5681C34.751 11.6928 34.6886 11.7551 34.5639 11.7551ZM45.8087 11.7551H42.2874C42.1627 11.7551 42.1004 11.6928 42.1004 11.5681V4.86663C42.1004 4.74191 42.1627 4.67956 42.2874 4.67956H45.8087C45.9261 4.67956 45.9848 4.74191 45.9848 4.86663V5.42783C45.9848 5.55254 45.9261 5.6149 45.8087 5.6149H43.2998C43.2118 5.6149 43.1677 5.65158 43.1677 5.72494V7.58461C43.1677 7.65797 43.2118 7.69465 43.2998 7.69465H45.4236C45.5556 7.69465 45.6216 7.75701 45.6216 7.88172V8.44292C45.6216 8.56764 45.5556 8.62999 45.4236 8.62999H43.2998C43.2118 8.62999 43.1677 8.66667 43.1677 8.74003V10.6987C43.1677 10.7794 43.2118 10.8198 43.2998 10.8198H45.8087C45.9261 10.8198 45.9848 10.8821 45.9848 11.0069V11.5681C45.9848 11.6928 45.9261 11.7551 45.8087 11.7551ZM48.1577 11.7551H47.4645C47.3397 11.7551 47.2774 11.6928 47.2774 11.5681V6.33016C47.2774 6.20544 47.3397 6.14309 47.4645 6.14309H48.1577C48.2824 6.14309 48.3448 6.20544 48.3448 6.33016V6.7263H48.3888C48.5649 6.33749 48.9353 6.14309 49.5002 6.14309H49.9844C50.5199 6.14309 50.9307 6.28981 51.2168 6.58325C51.5029 6.87669 51.646 7.29851 51.646 7.84871V11.5681C51.646 11.6928 51.58 11.7551 51.4479 11.7551H50.7547C50.6299 11.7551 50.5676 11.6928 50.5676 11.5681V7.89272C50.5676 7.34986 50.2998 7.07843 49.7643 7.07843H49.2471C48.6456 7.07843 48.3448 7.39021 48.3448 8.01377V11.5681C48.3448 11.6928 48.2824 11.7551 48.1577 11.7551ZM56.9345 11.7551H54.5577C54.0148 11.7551 53.593 11.6047 53.2922 11.304C52.9988 11.0032 52.852 10.585 52.852 10.0495V7.84871C52.852 7.30584 52.9988 6.88769 53.2922 6.59425C53.593 6.29348 54.0148 6.14309 54.5577 6.14309H55.46C56.0028 6.14309 56.4247 6.29348 56.7254 6.59425C57.0262 6.88769 57.1766 7.30584 57.1766 7.84871V9.24622C57.1766 9.37826 57.1106 9.44429 56.9785 9.44429H54.0295C53.9488 9.44429 53.9084 9.48097 53.9084 9.55433V10.0275C53.9084 10.563 54.1762 10.8308 54.7117 10.8308H56.9345C57.0666 10.8308 57.1326 10.8968 57.1326 11.0289V11.5791C57.1326 11.6964 57.0666 11.7551 56.9345 11.7551ZM54.0295 8.69602H55.9992C56.0725 8.69602 56.1092 8.65934 56.1092 8.58598V7.88172C56.1092 7.60295 56.0469 7.40121 55.9221 7.2765C55.7974 7.14445 55.5957 7.07843 55.3169 7.07843H54.7117C54.4329 7.07843 54.2312 7.14445 54.1065 7.2765C53.9818 7.40121 53.9194 7.60295 53.9194 7.88172V8.58598C53.9194 8.65934 53.9561 8.69602 54.0295 8.69602ZM59.2692 11.7551H58.5759C58.4512 11.7551 58.3889 11.6928 58.3889 11.5681V6.33016C58.3889 6.20544 58.4512 6.14309 58.5759 6.14309H59.2692C59.3939 6.14309 59.4562 6.20544 59.4562 6.33016V6.74831H59.5003C59.5736 6.56491 59.713 6.41819 59.9184 6.30815C60.1311 6.19811 60.3659 6.14309 60.6227 6.14309H61.0298C61.1545 6.14309 61.2169 6.20544 61.2169 6.33016V6.90236C61.2169 7.04175 61.1545 7.10044 61.0298 7.07843H60.3696C59.7607 7.07843 59.4562 7.41222 59.4562 8.07979V11.5681C59.4562 11.6928 59.3939 11.7551 59.2692 11.7551ZM64.1215 11.48H63.6263C63.0981 11.48 62.691 11.3333 62.4049 11.0399C62.1261 10.7391 61.9867 10.3173 61.9867 9.77441V7.84871C61.9867 7.30584 62.1371 6.88769 62.4379 6.59425C62.7387 6.29348 63.1568 6.14309 63.6923 6.14309H66.1572C66.2893 6.14309 66.3553 6.20544 66.3553 6.33016V11.7771C66.3553 12.3127 66.2013 12.7271 65.8931 13.0206C65.5924 13.3214 65.1742 13.4718 64.6387 13.4718H62.5699C62.4452 13.4718 62.3829 13.4131 62.3829 13.2957V12.7235C62.3829 12.5988 62.4452 12.5364 62.5699 12.5364H64.4736C65.0092 12.5364 65.2769 12.265 65.2769 11.7221V10.8858H65.2329C65.0495 11.282 64.679 11.48 64.1215 11.48ZM65.2769 9.60935V7.18847C65.2769 7.11511 65.2366 7.07843 65.1559 7.07843H63.8464C63.3255 7.07843 63.0651 7.34986 63.0651 7.89272V9.71939C63.0651 10.2623 63.3255 10.5337 63.8464 10.5337H64.3746C64.9761 10.5337 65.2769 10.2256 65.2769 9.60935ZM68.3874 13.5378H67.8042C67.6795 13.5378 67.6172 13.4754 67.6172 13.3507V12.7895C67.6172 12.6575 67.6795 12.5914 67.8042 12.5914H68.0573C68.5048 12.5914 68.8129 12.5034 68.9817 12.3273C69.1577 12.1513 69.3044 11.8615 69.4218 11.458H68.9817C68.8716 11.458 68.7946 11.3957 68.7506 11.271L67.287 6.33016C67.2577 6.20544 67.3054 6.14309 67.4301 6.14309H68.1674C68.2847 6.14309 68.3581 6.20544 68.3874 6.33016L69.5869 10.6437H69.6309L70.8303 6.33016C70.8523 6.20544 70.9257 6.14309 71.0504 6.14309H71.7547C71.894 6.14309 71.9527 6.20911 71.9307 6.34116L70.4232 11.6341C70.2545 12.2503 70.016 12.7198 69.7079 13.0426C69.3998 13.3727 68.9597 13.5378 68.3874 13.5378Z" fill="white"/>
</svg>
